<?xml version="1.0" encoding="iso-8859-1"?>
<!-- Generator: Adobe Illustrator 19.0.0, SVG Export Plug-In . SVG Version: 6.00 Build 0)  -->
<svg version="1.1" id="Layer_1" xmlns="http://www.w3.org/2000/svg" xmlns:xlink="http://www.w3.org/1999/xlink" x="0px" y="0px"
	 viewBox="0 0 512 512" style="enable-background:new 0 0 512 512;" xml:space="preserve">
<circle style="fill:#273B7A;" cx="256" cy="256" r="256"/>
<path style="fill:#121149;" d="M261.575,511.929c133.373-2.851,241.621-107.698,249.896-239.668L385.386,146.177l-7.525,7.292
	l-10.669-10.671l-27.26,27.26l10.242,10.242l-6.644,6.439l-40.024-43.941l-18.042,18.044l41.729,41.729L180.003,345.212l1.596,1.596
	l-40.996,44.149L261.575,511.929z"/>
<path style="fill:#FF5419;" d="M315.714,215.849c-3.893-3.893-10.204-3.893-14.095,0L201.325,316.144l-28.734-28.732
	c-3.893-3.893-10.204-3.893-14.096,0c-3.893,3.893-3.893,10.204,0,14.095l28.734,28.732l-12.74,12.74l-28.734-28.732
	c-3.893-3.893-10.204-3.893-14.096,0c-3.893,3.893-3.893,10.204,0,14.095l28.734,28.732l-12.74,12.74l-28.734-28.732
	c-3.893-3.893-10.204-3.893-14.096,0c-3.893,3.893-3.893,10.204,0,14.095l35.781,35.781c3.893,3.893,10.204,3.893,14.096,0
	l161.015-161.015C319.605,226.051,319.605,219.739,315.714,215.849z"/>
<path style="fill:#C92F00;" d="M314.752,215.062L139.729,390.084l0.874,0.874c3.893,3.893,10.204,3.893,14.096,0l161.015-161.015
	c3.893-3.893,3.893-10.204,0-14.096C315.414,215.549,315.078,215.316,314.752,215.062z"/>
<path style="fill:#EAA22F;" d="M385.386,200.763c15.074-15.074,15.074-39.512,0-54.586c-15.074-15.074-39.512-15.074-54.586,0
	c-15.074-15.074-39.512-15.074-54.586,0s-15.074,39.512,0,54.586L330.8,255.35c15.074,15.074,39.512,15.074,54.586,0
	C400.46,240.276,400.46,215.836,385.386,200.763z M296.684,166.645c-3.768-3.768-3.768-9.878,0-13.646s9.878-3.768,13.646,0
	s3.768,9.878,0,13.646S300.453,170.413,296.684,166.645z M358.093,173.47c-3.768-3.768-3.768-9.878,0-13.646
	c3.768-3.768,9.878-3.768,13.646,0c3.768,3.768,3.768,9.878,0,13.646C367.971,177.238,361.862,177.238,358.093,173.47z
	 M364.916,234.879c-3.768-3.768-3.768-9.878,0-13.646s9.878-3.768,13.646,0s3.768,9.878,0,13.646
	C374.794,238.647,368.685,238.647,364.916,234.879z"/>
<path style="fill:#E09112;" d="M385.386,200.763c15.074-15.074,15.074-39.514,0-54.587c-0.295-0.295-0.615-0.546-0.919-0.829
	l-13.691,13.69c0.328,0.252,0.664,0.486,0.962,0.786c3.768,3.768,3.768,9.878,0,13.646c-3.768,3.768-9.878,3.768-13.646,0
	c-0.3-0.3-0.534-0.636-0.786-0.962l-54.674,54.674l28.167,28.167c15.074,15.074,39.512,15.074,54.586,0
	C400.46,240.275,400.46,215.836,385.386,200.763z M378.563,234.879c-3.768,3.768-9.878,3.768-13.646,0s-3.768-9.878,0-13.646
	s9.878-3.768,13.646,0S382.331,231.11,378.563,234.879z"/>
<g>
</g>
<g>
</g>
<g>
</g>
<g>
</g>
<g>
</g>
<g>
</g>
<g>
</g>
<g>
</g>
<g>
</g>
<g>
</g>
<g>
</g>
<g>
</g>
<g>
</g>
<g>
</g>
<g>
</g>
</svg>
